<?xml version="1.0" encoding="utf-8"?>
<!-- Generator: Adobe Illustrator 24.1.3, SVG Export Plug-In . SVG Version: 6.00 Build 0)  -->
<svg version="1.1" id="レイヤー_1" xmlns="http://www.w3.org/2000/svg" xmlns:xlink="http://www.w3.org/1999/xlink" x="0px"
	 y="0px" viewBox="0 0 343.8 17.5" style="enable-background:new 0 0 343.8 17.5;" xml:space="preserve">
<style type="text/css">
	.st0{fill:#FFFFFF;}
	.st1{fill:#0079A7;}
	.st2{fill:#FFFFFF;}
</style>
<path class="st0" d="M20.4,15.7L20.4,15.7c-3.5-4.4-5.6-9.8-5.7-15.4l0,0l0,0H12l0,0l0,0c-0.2,5.6-2.2,11.1-5.8,15.4l0,0l0,0l0,0
	l0,0l2.1,1.7h0.1c2-2.5,3.5-5.2,4.6-8.2c0.1-0.3,0.2-0.7,0.3-0.9l0,0c0.1,0.3,0.2,0.7,0.3,0.9c1.1,3,2.6,5.8,4.6,8.3h0L20.4,15.7
	L20.4,15.7L20.4,15.7L20.4,15.7z"/>
<path class="st1" d="M14.1,15.7L14.1,15.7c-3.5-4.4-5.6-9.8-5.7-15.4l0,0l0,0H5.8l0,0l0,0C5.6,5.9,3.6,11.3,0,15.7l0,0l0,0l0,0l0,0
	l2.1,1.7l0,0c2-2.5,3.6-5.2,4.7-8.2C6.9,8.9,7,8.5,7.1,8.3l0,0c0.1,0.3,0.2,0.7,0.3,0.9c1.1,3,2.6,5.8,4.6,8.3l0,0L14.1,15.7
	L14.1,15.7L14.1,15.7L14.1,15.7z"/>
<g>
	<path class="st2" d="M38.6,16.2h-2.6L32.3,4.4l-1.5,11.8h-2.2l1.9-14.4h3l3.8,12l3.8-12h3L46,16.2h-2.2L42.4,4.4L38.6,16.2z"/>
	<path class="st2" d="M58.7,15.5c-1.4,0.7-2.9,1.1-4.4,1.1c-5,0-7.7-3.4-7.7-7.4c0-4.6,3.4-7.5,7.7-7.5c1.6,0,3.1,0.4,4.5,1.3
		l-0.7,2c-0.8-0.7-2-1.3-3.8-1.3c-3.5,0-5.5,2.6-5.5,5.5c0,2.7,1.7,5.5,5.7,5.5c1.8,0,3.2-0.6,4.3-1.4V15.5z"/>
	<path class="st2" d="M63.2,1.8v12.4h5.2v2H61V1.8H63.2z"/>
	<g>
		<path class="st2" d="M81.1,3.9c0.3,1.4,0.8,2.3,1,2.5c0.8-0.9,1.1-1.6,1.4-2.2l1.4,0.6c-0.5,0.8-1.1,1.9-2,2.8
			c0.3,0.4,0.9,1.1,1.3,1.1c0.4,0,0.7-1,0.9-1.8l1.4,0.7c-0.5,2.1-0.9,2.9-2,2.9c-1.1,0-2.1-1-2.8-1.8c-1.3,1-2.6,1.5-3.4,1.7
			l-0.6-1.3c0.6-0.2,1.7-0.5,3.1-1.6c-0.6-0.9-1.1-2.3-1.4-3.6h-6V5h4.7c-0.1,0.8-0.2,2.7-0.3,3.5c-0.1,0.3-0.3,1.2-1.5,1.2h-2.2
			l-0.3-1.5h1.8c0.7,0,0.8-0.1,0.9-1.8h-3.1c-0.1,1.7-0.7,3.3-1.8,4.5l-1.1-1.3c0.5-0.6,1.3-1.7,1.3-4.3v-3h7.4
			c-0.1-0.7-0.1-1.1-0.2-1.5h1.7c0,0.4,0,0.8,0.1,1.5h2.5c-0.5-0.2-1.1-0.6-1.4-0.8l0.9-1c0.2,0.1,1.2,0.6,2.1,1.2l-0.5,0.6h1.9v1.5
			H81.1z M86.4,14.4V16H70.8v-1.5H72v-3.6h13.1v3.6H86.4z M73.6,12.3v2.1h2.3v-2.1H73.6z M77.4,12.3v2.1h2.2v-2.1H77.4z M81.1,12.3
			v2.1h2.4v-2.1H81.1z"/>
		<path class="st2" d="M87.9,1.4h14.6V15c0,1.1-0.7,1.5-1.6,1.5h-2.8l-0.2-1.7h2.5c0.4,0,0.5-0.2,0.5-0.5V3H89.6v13.5h-1.7V1.4z
			 M90.1,5.8h2.3c-0.2-0.9-0.6-2.1-0.7-2.2l1.7-0.3c0.1,0.4,0.5,1.6,0.7,2.5h2.2c0.3-1,0.5-1.4,0.8-2.5l1.7,0.3
			c-0.3,1-0.4,1.4-0.7,2.1h2.2v1.5H96v5.2h1.8V8.1h1.6V14H91V8.1h1.6v4.4h1.8V7.3h-4.3V5.8z"/>
		<path class="st2" d="M103.9,8.3c0.5-1.1,0.5-2.8,0.5-4.1h1.3c0.1,3.1-0.2,4.1-0.4,4.8L103.9,8.3z M108.4,6.1
			c-0.1-0.3-0.2-0.7-0.5-1.6v12h-1.7V0.8h1.7v3.1l1-0.4c0.3,0.6,0.6,1.3,0.8,2L108.4,6.1z M119.5,3.1h-4.2V4h3.9v1.2h-3.9v0.9h4.5
			v1.3h-10.7V6.1h4.5V5.3h-3.7V4h3.7V3.1h-4.2V1.8h4.2V0.8h1.7v0.9h4.2V3.1z M119,8.2v6.5c0,1.6-0.2,1.8-1.8,1.8h-1.8l-0.3-1.5h1.9
			c0.4,0,0.4-0.2,0.4-0.6v-0.7h-5.9v2.8h-1.6V8.2H119z M111.5,9.4v0.9h5.9V9.4H111.5z M111.5,11.5v0.9h5.9v-0.9H111.5z"/>
		<path class="st2" d="M124.3,0.9h1.7v1.2h2.7v1.5h-2.7v1.5h3.2v1.5h-1c-0.1,0.4-0.4,1.8-0.5,2.2h1.3v1.5h-3V12h2.7v1.6h-2.7v2.8
			h-1.7v-2.8h-2.8V12h2.8v-1.6h-3V8.8h1.3c-0.1-0.6-0.2-1.5-0.5-2.2h-1V5.1h3.1V3.6h-2.8V2.1h2.8V0.9z M123.7,6.7
			c0.2,0.9,0.3,1.3,0.4,2.2h1.9c0.2-0.7,0.3-1.6,0.4-2.2H123.7z M132.9,9.3c0.2,0.6,0.6,1.3,1,2.1c0.4-1.2,0.6-1.8,0.7-2.4h-3.4v7.5
			h-1.6V1.4h6.6c0,0.7,0,3.6-0.4,4.4c-0.1,0.3-0.3,0.9-1.3,0.9h-2.2L132,5.2h1.7c0.5,0,0.8,0,0.8-2.2h-3.4v4.5h5.2
			c-0.1,1-0.4,3.6-1.4,5.6c0.6,0.6,1.1,1.1,2,1.8l-0.9,1.6c-0.6-0.4-1.3-1.1-2-2c-0.7,0.9-1.2,1.5-1.7,2l-1-1.4
			c0.5-0.4,1.1-0.9,1.7-2c-1.1-1.7-1.4-2.7-1.6-3.4L132.9,9.3z"/>
		<path class="st2" d="M141.9,2.2v4.9c3.2-0.6,5.6-1.7,7.8-2.8l1.1,1.7c-3.5,1.7-6.5,2.5-8.8,3v3.6c0,0.8,0.3,0.9,1.3,0.9h5.6
			c1.8,0,2.7-0.2,3.3-0.3l0.1,2c-0.7,0.1-1.4,0.1-3.5,0.1H143c-2.2,0-3-0.7-3-2.3V2.2H141.9z M150.6,4.3c-0.4-1.2-0.6-1.7-1.2-2.7
			l1.2-0.5c0.5,0.9,0.9,1.7,1.2,2.6L150.6,4.3z M152.8,3.9c-0.5-1.4-0.8-2-1.2-2.6l1.2-0.5c0.4,0.7,0.9,1.6,1.2,2.5L152.8,3.9z"/>
		<path class="st2" d="M159.5,9.4c-1.9-1.1-4-1.7-4.7-1.9l0.7-1.7c0.3,0.1,3,0.8,4.7,1.8L159.5,9.4z M155.8,13.5
			c6.3-0.5,9.1-2.5,11.3-9l1.8,0.8c-2.2,6.2-5.1,9.4-12.6,10.2L155.8,13.5z M160.8,5.6c-1.8-0.9-3.3-1.4-4.6-1.8l0.8-1.7
			c2.5,0.7,3.8,1.3,4.7,1.7L160.8,5.6z M165.8,3.9c-0.2-1.1-0.4-1.8-0.8-2.7l1.4-0.3c0.4,1,0.6,1.4,0.8,2.6L165.8,3.9z M168.3,3.6
			c-0.4-1.5-0.7-2.2-0.9-2.5l1.3-0.3c0.5,1,0.8,2.1,0.9,2.5L168.3,3.6z"/>
		<path class="st2" d="M178.3,16h-1.9v-5.1c-2.2,1.3-4.3,2-5.7,2.4l-0.9-1.7c2.4-0.6,7.3-2.1,10.7-6.2h-9.5V3.6h5.4V1.5h1.9v2.1h4.5
			v1.7c-0.7,0.9-2,2.6-4.5,4.4V16z M184.1,13.4c-1.8-1.4-3-2.1-5-3l1.2-1.4c0.9,0.4,3.2,1.4,4.9,2.6L184.1,13.4z"/>
		<path class="st2" d="M186.3,14.1c3.6-1.3,7.7-4.9,9.6-10h-8.6V2.3h11.2c-0.2,1-0.8,3.6-3.2,6.9c1.9,1.6,3.8,3.2,5.6,4.9l-1.6,1.6
			c-1.9-2.2-4.4-4.5-5.2-5.1c-1.9,2.2-4,4-6.6,5L186.3,14.1z"/>
		<path class="st2" d="M208.7,8c0-1,0-1.7-1.9-1.7c-1.3,0-1.8,0.3-1.8,1.1c0,0.4,0.2,0.7,0.6,1.1l4,3.9c0.2-0.3,0.2-0.7,0.2-1.2
			v-0.8h1.4v0.9c0,0.4,0,1.3-0.5,2.1l1.6,1.6h-2l-0.6-0.6c-0.3,0.3-0.9,0.7-3.1,0.7c-2.3,0-3.9-0.6-3.9-2.9c0-1.3,0.4-2.4,1.9-2.9
			c-0.4-0.3-1-0.7-1-1.9c0-1.9,1.2-2.4,3.3-2.4c3,0,3.3,1.4,3.3,3.1H208.7z M205.4,10.2c-0.3,0-1.4,0.3-1.4,1.8c0,1,0.3,1.7,2.7,1.7
			c0.3,0,1.3,0,1.9-0.4L205.4,10.2z"/>
		<path class="st2" d="M228.3,6.4v1.7h-5.4l0,0.5c-0.3,4-1.7,6.3-6.9,7.3l-0.8-1.7c3.2-0.4,5.6-1.3,5.8-5.7l0-0.5h-6.5V6.4H228.3z
			 M225.3,2.1v1.7h-9.9V2.1H225.3z M226.1,3.8c0-1.1-0.1-1.6-0.4-2.7l1.2-0.2c0.3,0.9,0.4,1.7,0.5,2.6L226.1,3.8z M228.1,3.4
			c-0.1-0.9-0.3-1.9-0.5-2.6l1.1-0.2c0.1,0.4,0.3,1,0.6,2.5L228.1,3.4z"/>
		<path class="st2" d="M239.5,1.5h1.8v3.3h2.9v1.7h-2.9v1.1c0,2-0.2,4.2-1.7,5.7c-0.6,0.7-2.3,2.1-5.8,2.5l-0.8-1.7
			c2.8-0.2,4.4-1.2,5-1.7c1.4-1.2,1.6-3.6,1.6-4.7V6.5h-5v4.3h-1.9V6.5h-2.5V4.8h2.5V1.7h1.9v3.1h5V1.5z M242.3,3.4
			c-0.1-1.2-0.1-1.5-0.3-2.6l1.1-0.1c0.3,0.9,0.3,1.4,0.4,2.6L242.3,3.4z M244.2,3.2c-0.1-1.3-0.2-1.4-0.4-2.6l1.2-0.1
			c0.2,0.8,0.4,1.8,0.5,2.6L244.2,3.2z"/>
		<path class="st2" d="M255.2,15.9h-2V8.4c-1.9,1.3-4,2.2-6.1,2.9l-0.9-1.6c2.2-0.7,7.2-2.4,12-8.2l1.8,1.1
			c-0.6,0.7-2.4,2.5-4.7,4.4V15.9z"/>
		<path class="st2" d="M267.9,6.5c-1.2-0.9-3.3-1.9-5-2.4l0.9-1.6c1.5,0.4,2.9,0.9,5.2,2.3L267.9,6.5z M263,13.4
			c6.2-0.4,9.8-2.8,12.1-9.9l1.9,0.8c-2.4,7.1-6,10.2-13.4,11.2L263,13.4z"/>
		<path class="st2" d="M281.7,12.2h-3.9v-1.4h10.7V9.9h-9.4V4.3h5.6V3.5h-6.9V2.1h6.9V0.8h1.6v1.2h7.1v1.4h-7.1v0.9h5.5v5.5h-1.7
			v0.9h3.2v1.4h-3.2v2.9c0,1.4-1.2,1.4-1.4,1.4H286l-0.4-1.7h2.6c0.3,0,0.3-0.1,0.3-0.4v-2.1H281.7c1.6,1.3,2.5,2.2,2.8,2.7L283,16
			c-0.9-1.3-2.3-2.4-2.7-2.7L281.7,12.2z M280.7,5.6v1h4v-1H280.7z M280.7,7.7v0.9h4V7.7H280.7z M286.4,5.6v1h3.9v-1H286.4z
			 M286.4,7.7v0.9h3.9V7.7H286.4z"/>
		<path class="st2" d="M295.1,1.4h6.3V8h-4.6v8.5h-1.7V1.4z M296.8,4.1h3V2.9h-3V4.1z M296.8,6.4h3V5.2h-3V6.4z M307.8,8H303V1.4
			h6.5v13.5c0,0.9-0.5,1.5-1.7,1.5h-2.6l-0.3-1.7h2.5c0.4,0,0.4,0,0.4-0.4V8z M304.6,4.1h3.2V2.9h-3.2V4.1z M304.6,6.4h3.2V5.2h-3.2
			V6.4z"/>
		<path class="st2" d="M324.1,6.3v1.4c-0.9,0.8-2.9,2.1-4.2,2.7v0.1h7v1.6h-7v3c0,1.2-1.2,1.4-1.4,1.4h-3.3l-0.3-1.8h2.7
			c0.5,0,0.5-0.2,0.5-0.5v-2.1h-7v-1.6h7V9.2h0.7c0.6-0.2,1.7-0.6,2.5-1.3h-7.4V6.3H324.1z M313.7,3.5c-0.3-0.9-0.8-1.6-1-2l1.6-0.6
			c0.4,0.6,1,1.6,1.2,2.5l-0.4,0.1h3.3c-0.4-1-0.7-1.5-1.1-2.1l1.6-0.6c0.3,0.5,1,1.8,1.3,2.6l-0.5,0.2h2.7c0.2-0.4,0.4-0.9,1.1-2.7
			l1.9,0.6c-0.4,0.9-0.6,1.3-1.1,2.2h2.1v3.8h-1.7V5.1h-11.6v2.2h-1.7V3.5H313.7z"/>
		<path class="st2" d="M327.7,10.5c1.1-1.6,1.6-2.9,2.2-4.9h-2.1V3.9h2.3V0.9h1.6v3.1h1.8v1.6h-1.8v1c0.8,1.5,1.7,2.4,2.3,3.1
			l-0.9,1.6c-0.7-0.9-0.9-1.3-1.4-2.3v7.5h-1.6V8.7c-0.5,1.7-1,2.6-1.8,4L327.7,10.5z M341.9,8.5c-0.3,0.9-0.9,2.6-2.3,4.2
			c1.5,1.3,3.1,1.8,4.3,2.1l-0.8,1.7c-0.9-0.3-2.9-0.9-4.7-2.5c-1.3,1.2-2.9,1.9-4.6,2.5l-0.9-1.5c1.1-0.4,2.8-0.9,4.3-2.2
			c-1.3-1.7-1.9-3.3-2.2-4.3l1.5-0.4c0.2,0.7,0.7,2.1,1.9,3.5c0.7-0.8,1.3-1.9,1.9-3.6L341.9,8.5z M337.5,5.2
			c-0.8,1.2-1.8,2.3-3.1,3.2l-1.2-1.2c1.8-1,2.5-2.1,2.9-2.7L337.5,5.2z M337.6,0.9h1.7v1.6h4.2V4h-9.9V2.5h4V0.9z M340.8,4.4
			c1,1.2,1.8,1.8,3,2.6l-1.1,1.4c-0.9-0.6-2-1.3-3.3-3.2L340.8,4.4z"/>
	</g>
</g>
</svg>
